<svg width="64" height="64" viewBox="0 0 64 64" fill="none" xmlns="http://www.w3.org/2000/svg">
<path d="M32 0C49.6731 0 64 14.3269 64 32C64 49.6731 49.6731 64 32 64C14.3269 64 0 49.6731 0 32C0 14.3269 14.3269 0 32 0Z" fill="#E5E7EB"/>
<path d="M32 0C49.6731 0 64 14.3269 64 32C64 49.6731 49.6731 64 32 64C14.3269 64 0 49.6731 0 32C0 14.3269 14.3269 0 32 0Z" stroke="#E5E7EB"/>
<path d="M41 48H23V16H41V48Z" stroke="#E5E7EB"/>
<g clip-path="url(#clip0_1_88)">
<path d="M25.25 19C24.0078 19 23 20.0078 23 21.25V40.75C23 41.9922 24.0078 43 25.25 43H29.75V39.25C29.75 38.0078 30.7578 37 32 37C33.2422 37 34.25 38.0078 34.25 39.25V43H38.75C39.9922 43 41 41.9922 41 40.75V21.25C41 20.0078 39.9922 19 38.75 19H25.25ZM26 30.25C26 29.8375 26.3375 29.5 26.75 29.5H28.25C28.6625 29.5 29 29.8375 29 30.25V31.75C29 32.1625 28.6625 32.5 28.25 32.5H26.75C26.3375 32.5 26 32.1625 26 31.75V30.25ZM31.25 29.5H32.75C33.1625 29.5 33.5 29.8375 33.5 30.25V31.75C33.5 32.1625 33.1625 32.5 32.75 32.5H31.25C30.8375 32.5 30.5 32.1625 30.5 31.75V30.25C30.5 29.8375 30.8375 29.5 31.25 29.5ZM35 30.25C35 29.8375 35.3375 29.5 35.75 29.5H37.25C37.6625 29.5 38 29.8375 38 30.25V31.75C38 32.1625 37.6625 32.5 37.25 32.5H35.75C35.3375 32.5 35 32.1625 35 31.75V30.25ZM26.75 23.5H28.25C28.6625 23.5 29 23.8375 29 24.25V25.75C29 26.1625 28.6625 26.5 28.25 26.5H26.75C26.3375 26.5 26 26.1625 26 25.75V24.25C26 23.8375 26.3375 23.5 26.75 23.5ZM30.5 24.25C30.5 23.8375 30.8375 23.5 31.25 23.5H32.75C33.1625 23.5 33.5 23.8375 33.5 24.25V25.75C33.5 26.1625 33.1625 26.5 32.75 26.5H31.25C30.8375 26.5 30.5 26.1625 30.5 25.75V24.25ZM35.75 23.5H37.25C37.6625 23.5 38 23.8375 38 24.25V25.75C38 26.1625 37.6625 26.5 37.25 26.5H35.75C35.3375 26.5 35 26.1625 35 25.75V24.25C35 23.8375 35.3375 23.5 35.75 23.5Z" fill="black"/>
</g>
<defs>
<clipPath id="clip0_1_88">
<path d="M23 19H41V43H23V19Z" fill="white"/>
</clipPath>
</defs>
</svg>
