<svg width="68" height="68" viewBox="0 0 68 68" fill="none" xmlns="http://www.w3.org/2000/svg">
<path d="M33.5996 0C52.1562 0 67.2 15.043 67.2002 33.5996C67.2002 52.1564 52.1564 67.2002 33.5996 67.2002C15.043 67.2 0 52.1562 0 33.5996C0.000208221 15.0432 15.0432 0.000197925 33.5996 0Z" fill="#63071E"/>
<g clip-path="url(#clip0_1_47)">
<path d="M33.6001 19.9501C33.8265 19.9501 34.0529 19.9993 34.2596 20.0928L43.5275 24.0254C44.6103 24.4831 45.4175 25.5512 45.4126 26.8407C45.388 31.7232 43.3798 40.6564 34.8995 44.7169C34.0775 45.1107 33.1227 45.1107 32.3007 44.7169C23.8204 40.6564 21.8122 31.7232 21.7876 26.8407C21.7827 25.5512 22.5899 24.4831 23.6727 24.0254L32.9455 20.0928C33.1473 19.9993 33.3737 19.9501 33.6001 19.9501ZM33.6001 23.2379V41.8425C40.3923 38.5547 42.2183 31.2753 42.2626 26.9096L33.6001 23.2379Z" fill="white"/>
</g>
<defs>
<clipPath id="clip0_1_47">
<path d="M21 19.9501H46.2V45.15H21V19.9501Z" fill="white"/>
</clipPath>
</defs>
</svg>
