<svg width="100" height="120" viewBox="0 0 100 120" fill="none" xmlns="http://www.w3.org/2000/svg">
  <!-- Hoja de Legalia - Solo icono -->
  <g id="hoja">
    <!-- Tallo principal -->
    <path d="M 50 110 L 50 20" stroke="#8B1538" stroke-width="3" stroke-linecap="round"/>
    
    <!-- Hoja principal -->
    <path d="M 50 20 C 50 20, 25 30, 20 50 C 15 70, 25 90, 40 95 C 45 97, 50 98, 50 98 C 50 98, 55 97, 60 95 C 75 90, 85 70, 80 50 C 75 30, 50 20, 50 20 Z" fill="#8B1538"/>
    
    <!-- Vena central de la hoja -->
    <path d="M 50 20 L 50 95" stroke="#F5F5DC" stroke-width="1.5" opacity="0.5"/>
    
    <!-- Venas secundarias izquierdas -->
    <path d="M 50 35 C 45 40, 40 42, 35 50" stroke="#F5F5DC" stroke-width="1" opacity="0.3"/>
    <path d="M 50 50 C 45 53, 40 55, 35 60" stroke="#F5F5DC" stroke-width="1" opacity="0.3"/>
    <path d="M 50 65 C 45 68, 42 70, 38 75" stroke="#F5F5DC" stroke-width="1" opacity="0.3"/>
    
    <!-- Venas secundarias derechas -->
    <path d="M 50 35 C 55 40, 60 42, 65 50" stroke="#F5F5DC" stroke-width="1" opacity="0.3"/>
    <path d="M 50 50 C 55 53, 60 55, 65 60" stroke="#F5F5DC" stroke-width="1" opacity="0.3"/>
    <path d="M 50 65 C 55 68, 58 70, 62 75" stroke="#F5F5DC" stroke-width="1" opacity="0.3"/>
  </g>
</svg>

